<svg width="189" height="106" viewBox="0 0 189 106" fill="none" xmlns="http://www.w3.org/2000/svg">
<path d="M172.457 40.4119C172.352 40.3039 172.211 40.2451 172.062 40.2451C171.898 40.2451 171.752 40.319 171.65 40.4352L146.817 40.4379V41.179L171.648 41.1763C171.751 41.2939 171.897 41.3691 172.062 41.3691C172.367 41.3691 172.617 41.1175 172.616 40.8071C172.617 40.6567 172.561 40.5172 172.457 40.4119Z" fill="url(#paint0_linear_186_1314)"/>
<path d="M170.136 39.4571C170.441 39.4571 170.689 39.2055 170.689 38.8951C170.689 38.5847 170.441 38.3331 170.135 38.3331C169.986 38.3331 169.845 38.3919 169.74 38.4999C169.733 38.5068 169.729 38.515 169.722 38.5232L144.871 38.5259V39.267L169.721 39.2643C169.823 39.3819 169.97 39.4571 170.136 39.4571Z" fill="url(#paint1_linear_186_1314)"/>
<path d="M168.182 37.5662C168.331 37.5662 168.472 37.5074 168.577 37.3994C168.679 37.2941 168.737 37.1533 168.737 37.0056C168.737 36.6952 168.489 36.4436 168.182 36.4436C168.017 36.4436 167.87 36.5188 167.77 36.635H142.956V37.3761H167.77C167.87 37.491 168.018 37.5662 168.182 37.5662Z" fill="url(#paint2_linear_186_1314)"/>
<path d="M172.464 64.5756C172.36 64.4676 172.219 64.4088 172.07 64.4088C171.904 64.4088 171.758 64.484 171.656 64.6016L146.824 64.5989V65.34L171.657 65.3427C171.759 65.4589 171.906 65.5328 172.07 65.5328C172.375 65.5328 172.623 65.2812 172.625 64.9708C172.625 64.8218 172.568 64.6809 172.464 64.5756Z" fill="url(#paint3_linear_186_1314)"/>
<path d="M170.142 66.3175C169.977 66.3175 169.829 66.3927 169.728 66.5103L144.879 66.5076V67.2487L169.73 67.2514C169.737 67.2582 169.741 67.2664 169.748 67.2747C169.853 67.3827 169.993 67.4415 170.142 67.4415C170.447 67.4415 170.696 67.1899 170.697 66.8795C170.696 66.5691 170.447 66.3175 170.142 66.3175Z" fill="url(#paint4_linear_186_1314)"/>
<path d="M168.184 68.2075C168.018 68.2075 167.872 68.2827 167.77 68.3989H142.956V69.1401H167.77C167.872 69.2563 168.018 69.3315 168.184 69.3315C168.489 69.3315 168.737 69.0799 168.738 68.7695C168.738 68.6205 168.682 68.481 168.58 68.3743C168.473 68.2663 168.334 68.2075 168.184 68.2075Z" fill="url(#paint5_linear_186_1314)"/>
<path d="M155.01 52.8618L154.834 52.6923L139.565 37.0032C139.571 36.8569 139.518 36.7093 139.408 36.5985C139.191 36.3838 138.836 36.3879 138.616 36.6081C138.395 36.8268 138.391 37.1796 138.606 37.3929C138.71 37.4955 138.846 37.5515 138.994 37.5515C138.998 37.5515 139.001 37.5515 139.005 37.5515C139.013 37.5515 139.02 37.5488 139.028 37.5488L153.935 52.8673L139.028 68.1844C139.02 68.1844 139.013 68.1817 139.005 68.1817C138.853 68.1817 138.712 68.235 138.606 68.3403C138.5 68.4456 138.443 68.5851 138.446 68.7355C138.449 68.8818 138.509 69.0212 138.614 69.1265C138.721 69.2318 138.86 69.2906 139.009 69.2933C139.013 69.2933 139.016 69.2933 139.02 69.2933C139.168 69.2933 139.304 69.2373 139.408 69.1347C139.514 69.0294 139.571 68.89 139.568 68.7396C139.568 68.7368 139.567 68.7327 139.567 68.73L155.01 52.8618Z" fill="url(#paint6_linear_186_1314)"/>
<path d="M151.84 53.3542L152.329 52.9002L152.3 52.8701L152.318 52.851L152.009 52.5625L137.31 37.0539C137.321 36.8994 137.272 36.7435 137.154 36.6273C136.938 36.4126 136.583 36.4181 136.362 36.6369C136.141 36.8556 136.137 37.2084 136.353 37.4217C136.456 37.5243 136.593 37.5803 136.74 37.5803C136.744 37.5803 136.747 37.5803 136.751 37.5803C136.754 37.5803 136.756 37.5803 136.757 37.579L151.248 52.8687L136.757 68.1599C136.754 68.1599 136.753 68.1599 136.75 68.1585C136.598 68.1585 136.457 68.2118 136.351 68.3171C136.136 68.5318 136.14 68.8832 136.361 69.102C136.473 69.2127 136.62 69.2688 136.765 69.2688C136.906 69.2688 137.047 69.2169 137.153 69.1116C137.27 68.9953 137.32 68.8395 137.309 68.6849L151.84 53.3542Z" fill="url(#paint7_linear_186_1314)"/>
<path d="M149.471 52.9787L149.58 52.8789L149.571 52.8707L149.585 52.8556L149.402 52.6875L134.808 37.0422C134.825 36.8836 134.775 36.7195 134.655 36.5991C134.549 36.4939 134.409 36.4351 134.256 36.4405C134.108 36.4433 133.968 36.5021 133.861 36.6074C133.641 36.8261 133.636 37.1789 133.852 37.3922C133.958 37.4975 134.099 37.5508 134.239 37.5508C134.248 37.5508 134.255 37.5495 134.263 37.5481L148.553 52.8693L134.264 68.1892C134.26 68.1892 134.256 68.1878 134.252 68.1878C134.1 68.1878 133.959 68.2411 133.853 68.3464C133.747 68.4517 133.69 68.5912 133.693 68.7416C133.696 68.8879 133.755 69.0274 133.861 69.1327C133.973 69.2434 134.121 69.2995 134.266 69.2995C134.406 69.2995 134.547 69.2475 134.654 69.1422C134.775 69.0219 134.825 68.8578 134.807 68.6992L149.471 52.9787Z" fill="url(#paint8_linear_186_1314)"/>
<path d="M63.8687 38.5779V39.319L88.7181 39.3163C88.725 39.3245 88.7305 39.3341 88.7388 39.3409C88.8437 39.4489 88.9844 39.5077 89.1335 39.5077C89.2826 39.5077 89.4233 39.4489 89.5282 39.3409C89.6304 39.2356 89.6883 39.0948 89.6869 38.9471C89.6869 38.6367 89.4385 38.3851 89.1321 38.3851C88.9679 38.3851 88.8216 38.459 88.7195 38.5752L63.8687 38.5779Z" fill="white"/>
<path d="M86.7787 37.4495C86.8836 37.5575 87.0243 37.6163 87.1734 37.6163C87.4784 37.6163 87.7268 37.3647 87.7268 37.0543C87.7268 36.9053 87.6702 36.7658 87.5667 36.6591C87.4618 36.5511 87.3211 36.4923 87.172 36.4923C87.0064 36.4923 86.8601 36.5675 86.758 36.6837H61.9458V37.4248H86.7593C86.7662 37.4331 86.7704 37.4426 86.7787 37.4495Z" fill="white"/>
<path d="M65.8066 40.4866V41.2277L90.6381 41.225C90.7403 41.3426 90.8865 41.4178 91.0522 41.4178C91.3572 41.4178 91.6056 41.1662 91.6056 40.8558C91.6056 40.5454 91.3572 40.2938 91.0508 40.2938C90.8866 40.2938 90.7403 40.3677 90.6381 40.4839L65.8066 40.4866Z" fill="white"/>
<path d="M91.0522 68.0848C90.8879 68.0848 90.7416 68.16 90.6395 68.2749L65.8066 68.2776V69.0187L90.6367 69.016C90.6437 69.0242 90.6492 69.0338 90.6574 69.0406C90.7623 69.1486 90.9031 69.2074 91.0522 69.2074C91.3572 69.2074 91.6056 68.9558 91.6056 68.6455C91.6056 68.3364 91.3572 68.0848 91.0522 68.0848Z" fill="white"/>
<path d="M88.7374 67.1301C88.8423 67.2381 88.9831 67.2969 89.1321 67.2969C89.2812 67.2969 89.4219 67.2367 89.5268 67.1301C89.629 67.0248 89.6869 66.884 89.6869 66.7363C89.6869 66.5872 89.6303 66.4478 89.5268 66.3425C89.4219 66.2345 89.2812 66.1757 89.1321 66.1757C88.9831 66.1757 88.8423 66.2358 88.7374 66.3425C88.7305 66.3493 88.7264 66.3575 88.7195 66.3657L63.8687 66.3685V67.1096L88.7181 67.1068C88.725 67.1137 88.7305 67.1219 88.7374 67.1301Z" fill="white"/>
<path d="M87.1734 65.4068C87.4784 65.4068 87.7268 65.1552 87.7268 64.8448C87.7268 64.5344 87.4784 64.2828 87.172 64.2828C87.0064 64.2828 86.8601 64.358 86.758 64.4743H61.9458V65.2154H86.7593C86.8615 65.333 87.0078 65.4068 87.1734 65.4068Z" fill="white"/>
<path d="M91.0522 54.5994C90.8879 54.5994 90.7416 54.6732 90.6395 54.7894L65.8066 54.7922V55.5333L90.6381 55.5305C90.7403 55.6481 90.8865 55.7233 91.0522 55.7233C91.3572 55.7233 91.6056 55.4717 91.6056 55.1613C91.6056 54.851 91.3572 54.5994 91.0522 54.5994Z" fill="white"/>
<path d="M89.1321 52.6907C88.9831 52.6907 88.8423 52.7495 88.7374 52.8575C88.7305 52.8643 88.7264 52.8725 88.7195 52.8807L63.8687 52.8835V53.6246L88.7181 53.6218C88.8202 53.7394 88.9665 53.8146 89.1321 53.8146C89.2812 53.8146 89.4219 53.7545 89.5268 53.6478C89.629 53.5425 89.6869 53.4017 89.6856 53.2527C89.6856 53.1036 89.629 52.9641 89.5255 52.8589C89.4219 52.7495 89.2826 52.6907 89.1321 52.6907Z" fill="white"/>
<path d="M87.1734 51.9218C87.4784 51.9218 87.7268 51.6702 87.7268 51.3598C87.7268 51.0494 87.4784 50.7979 87.172 50.7979C87.0064 50.7979 86.8601 50.8731 86.758 50.9893H61.9458V51.7304H86.7593C86.8615 51.8466 87.0078 51.9218 87.1734 51.9218Z" fill="white"/>
<path d="M98.846 69.1037C99.032 69.1037 99.1828 68.9543 99.1828 68.77C99.1828 68.5858 99.032 68.4364 98.846 68.4364C98.66 68.4364 98.5093 68.5858 98.5093 68.77C98.5093 68.9543 98.66 69.1037 98.846 69.1037Z" fill="white"/>
<path d="M98.8396 69.3167C98.5346 69.3167 98.2861 69.0706 98.2861 68.7684C98.2861 68.4662 98.5346 68.2201 98.8396 68.2201C99.1446 68.2201 99.393 68.4662 99.393 68.7684C99.393 69.072 99.1446 69.3167 98.8396 69.3167ZM98.8396 68.6494C98.7733 68.6494 98.7181 68.7028 98.7181 68.7698C98.7181 68.8368 98.7719 68.8901 98.8396 68.8901C98.9058 68.8901 98.961 68.8368 98.961 68.7698C98.961 68.7028 98.9058 68.6494 98.8396 68.6494Z" fill="white"/>
<path d="M124.488 68.3519L124.465 48.5417C124.457 41.452 118.629 35.6844 111.474 35.6844C104.311 35.6844 98.4829 41.4588 98.4829 48.5554V68.6787H99.2309V48.5554C99.2309 41.8663 104.724 36.4256 111.474 36.4256C118.218 36.4256 123.71 41.8608 123.717 48.5431L123.739 68.3478C123.628 68.4477 123.557 68.5912 123.557 68.7512C123.557 69.0534 123.806 69.2995 124.111 69.2995C124.416 69.2995 124.664 69.0534 124.664 68.7512C124.663 68.5926 124.595 68.4518 124.488 68.3519Z" fill="white"/>
<path d="M122.502 66.4046V48.5442C122.502 42.51 117.546 37.5999 111.455 37.5999C105.365 37.5999 100.409 42.51 100.409 48.5442V66.4552C100.304 66.555 100.236 66.6945 100.236 66.8503C100.236 67.1525 100.485 67.3986 100.79 67.3986C101.095 67.3986 101.343 67.1525 101.343 66.8503C101.343 66.689 101.27 66.544 101.157 66.4442V48.5442C101.157 42.9175 105.776 38.341 111.455 38.341C117.135 38.341 121.754 42.9175 121.754 48.5442V66.4593C121.663 66.5564 121.606 66.6863 121.606 66.8298C121.606 67.132 121.855 67.3781 122.16 67.3781C122.465 67.3781 122.713 67.132 122.713 66.8298C122.712 66.6575 122.629 66.5044 122.502 66.4046Z" fill="white"/>
<path d="M120.588 64.521L120.599 48.5777C120.601 46.1616 119.652 43.8904 117.929 42.1812C116.205 40.472 113.914 39.5312 111.475 39.5312C106.444 39.5312 102.351 43.5868 102.351 48.5708V64.5293C102.243 64.6291 102.174 64.7699 102.174 64.9285C102.174 65.2307 102.423 65.4768 102.728 65.4768C103.033 65.4768 103.281 65.2307 103.281 64.9285C103.281 64.7685 103.211 64.6263 103.1 64.5252V48.5708C103.1 43.9957 106.857 40.2724 111.476 40.2724C113.715 40.2724 115.818 41.1365 117.401 42.7049C118.983 44.2732 119.854 46.3585 119.853 48.5763L119.841 64.506C119.727 64.6058 119.654 64.7508 119.654 64.9135C119.654 65.2157 119.902 65.4618 120.207 65.4618C120.512 65.4618 120.761 65.2157 120.761 64.9135C120.759 64.759 120.693 64.6195 120.588 64.521Z" fill="white"/>
<path d="M49.4893 56.2041C49.4893 56.4612 49.6287 56.6854 49.8371 56.8085L49.8468 64.5012H32.2886C25.7826 64.5012 20.4912 59.2574 20.4912 52.813C20.4912 46.3673 25.784 41.1249 32.2886 41.1249H44.743C44.8686 41.3232 45.0922 41.4558 45.3447 41.4558C45.7367 41.4558 46.0569 41.1399 46.0569 40.7502C46.0569 40.3619 45.7381 40.0447 45.3447 40.0447C45.0908 40.0447 44.8686 40.1773 44.743 40.3756H32.2886C25.3672 40.3756 19.7349 45.9544 19.7349 52.813C19.7349 59.6717 25.3658 65.2505 32.2886 65.2505H50.6031L50.5934 56.7934C50.7866 56.6676 50.9136 56.4502 50.9136 56.2041C50.9136 55.8158 50.5948 55.4985 50.2015 55.4985C49.8081 55.4985 49.4893 55.8144 49.4893 56.2041Z" fill="white"/>
<path d="M40.512 56.9356C40.7673 56.9356 40.9895 56.8016 41.1151 56.602H48.3512V55.854H41.1123C40.9853 55.6571 40.7645 55.5259 40.512 55.5259C40.12 55.5259 39.7998 55.8417 39.7998 56.2314C39.8012 56.6198 40.12 56.9356 40.512 56.9356Z" fill="white"/>
<path d="M37.6805 55.0202C37.9317 55.0202 38.1539 54.8903 38.2795 54.6934H46.3892V53.9455H38.2864C38.1608 53.7445 37.9372 53.6105 37.6819 53.6105C37.2899 53.6105 36.9697 53.9263 36.9697 54.316C36.9697 54.7057 37.2885 55.0202 37.6805 55.0202Z" fill="white"/>
<path d="M51.7848 54.9435L51.7959 66.3035H32.1496C24.6099 66.3035 18.4765 60.2269 18.4765 52.7571C18.4765 45.2872 24.6099 39.2107 32.1496 39.2107H46.5679C46.6921 39.4171 46.9198 39.5566 47.1793 39.5566C47.5713 39.5566 47.8915 39.2408 47.8915 38.8511C47.8915 38.4627 47.5727 38.1455 47.1793 38.1455C46.9323 38.1455 46.7142 38.2713 46.5858 38.4614H32.1496C24.1931 38.4614 17.7202 44.8743 17.7202 52.7571C17.7202 60.6399 24.1931 67.0528 32.1496 67.0528H52.5522L52.5412 54.9476C52.7427 54.8231 52.8779 54.6016 52.8779 54.35C52.8779 53.9617 52.5591 53.6445 52.1658 53.6445C51.7738 53.6445 51.4536 53.9603 51.4536 54.35C51.4522 54.5989 51.5861 54.819 51.7848 54.9435Z" fill="white"/>
<path d="M54.863 52.4456C54.863 52.0572 54.5442 51.74 54.1508 51.74C53.7575 51.74 53.4387 52.0559 53.4387 52.4456C53.4387 52.6931 53.5684 52.9118 53.7644 53.0376L53.7768 68.3137H32.3073C23.6759 68.3137 16.6538 61.3566 16.6538 52.8052C16.6538 44.2537 23.6759 37.2966 32.3073 37.2966H48.9021C49.0264 37.5017 49.2527 37.6412 49.5122 37.6412C49.9041 37.6412 50.2243 37.3254 50.2243 36.9357C50.2243 36.546 49.9055 36.2301 49.5122 36.2301C49.2637 36.2301 49.0457 36.3573 48.9173 36.5487H32.3073C23.2591 36.5487 15.8975 43.8422 15.8975 52.8066C15.8975 61.7709 23.2591 69.0644 32.3073 69.0644H54.5331L54.5193 53.0499C54.725 52.9228 54.863 52.6999 54.863 52.4456Z" fill="white"/>
<path d="M44.497 52.0039H35.2984C35.1714 51.807 34.9506 51.6758 34.698 51.6758C34.306 51.6758 33.9858 51.9916 33.9858 52.3813C33.9858 52.7697 34.3047 53.0869 34.698 53.0869C34.9519 53.0869 35.1755 52.9529 35.3011 52.7533H44.497V52.0039Z" fill="white"/>
<defs>
<linearGradient id="paint0_linear_186_1314" x1="150.801" y1="40.806" x2="176.601" y2="40.806" gradientUnits="userSpaceOnUse">
<stop stop-color="#8660FF"/>
<stop offset="0.4341" stop-color="#9D6FFC"/>
<stop offset="0.4844" stop-color="#A374FB"/>
<stop offset="0.7629" stop-color="#BF8EF9"/>
<stop offset="0.9246" stop-color="#C997F8"/>
</linearGradient>
<linearGradient id="paint1_linear_186_1314" x1="144.872" y1="38.8951" x2="170.69" y2="38.8951" gradientUnits="userSpaceOnUse">
<stop stop-color="#8660FF"/>
<stop offset="0.4341" stop-color="#9D6FFC"/>
<stop offset="0.4844" stop-color="#A374FB"/>
<stop offset="0.7629" stop-color="#BF8EF9"/>
<stop offset="0.9246" stop-color="#C997F8"/>
</linearGradient>
<linearGradient id="paint2_linear_186_1314" x1="142.955" y1="37.0042" x2="168.737" y2="37.0042" gradientUnits="userSpaceOnUse">
<stop stop-color="#8660FF"/>
<stop offset="0.4341" stop-color="#9D6FFC"/>
<stop offset="0.4844" stop-color="#A374FB"/>
<stop offset="0.7629" stop-color="#BF8EF9"/>
<stop offset="0.9246" stop-color="#C997F8"/>
</linearGradient>
<linearGradient id="paint3_linear_186_1314" x1="146.825" y1="64.9698" x2="172.624" y2="64.9698" gradientUnits="userSpaceOnUse">
<stop stop-color="#8660FF"/>
<stop offset="0.4341" stop-color="#9D6FFC"/>
<stop offset="0.4844" stop-color="#A374FB"/>
<stop offset="0.7629" stop-color="#BF8EF9"/>
<stop offset="0.9246" stop-color="#C997F8"/>
</linearGradient>
<linearGradient id="paint4_linear_186_1314" x1="144.878" y1="66.8788" x2="170.696" y2="66.8788" gradientUnits="userSpaceOnUse">
<stop stop-color="#8660FF"/>
<stop offset="0.4341" stop-color="#9D6FFC"/>
<stop offset="0.4844" stop-color="#A374FB"/>
<stop offset="0.7629" stop-color="#BF8EF9"/>
<stop offset="0.9246" stop-color="#C997F8"/>
</linearGradient>
<linearGradient id="paint5_linear_186_1314" x1="142.957" y1="68.7688" x2="168.738" y2="68.7688" gradientUnits="userSpaceOnUse">
<stop stop-color="#8660FF"/>
<stop offset="0.4341" stop-color="#9D6FFC"/>
<stop offset="0.4844" stop-color="#A374FB"/>
<stop offset="0.7629" stop-color="#BF8EF9"/>
<stop offset="0.9246" stop-color="#C997F8"/>
</linearGradient>
<linearGradient id="paint6_linear_186_1314" x1="137.123" y1="52.4325" x2="154.588" y2="56.5148" gradientUnits="userSpaceOnUse">
<stop stop-color="#8660FF"/>
<stop offset="0.4341" stop-color="#9D6FFC"/>
<stop offset="0.4844" stop-color="#A374FB"/>
<stop offset="0.7629" stop-color="#BF8EF9"/>
<stop offset="0.9246" stop-color="#C997F8"/>
</linearGradient>
<linearGradient id="paint7_linear_186_1314" x1="137.006" y1="52.9239" x2="154.471" y2="57.0062" gradientUnits="userSpaceOnUse">
<stop stop-color="#8660FF"/>
<stop offset="0.4341" stop-color="#9D6FFC"/>
<stop offset="0.4844" stop-color="#A374FB"/>
<stop offset="0.7629" stop-color="#BF8EF9"/>
<stop offset="0.9246" stop-color="#C997F8"/>
</linearGradient>
<linearGradient id="paint8_linear_186_1314" x1="136.889" y1="53.4703" x2="154.354" y2="57.5527" gradientUnits="userSpaceOnUse">
<stop stop-color="#8660FF"/>
<stop offset="0.4341" stop-color="#9D6FFC"/>
<stop offset="0.4844" stop-color="#A374FB"/>
<stop offset="0.7629" stop-color="#BF8EF9"/>
<stop offset="0.9246" stop-color="#C997F8"/>
</linearGradient>
</defs>
</svg>
